# 3ds Max Wavefront OBJ Exporter v0.97b - (c)2007 guruware
# File Created: 08.04.2015 19:05:53

mtllib Assets\Cube_brick.mtl

#
# object Box001
#

v  -50.0000 0.0000 -50.0000
v  50.0000 0.0000 -50.0000
v  50.0000 0.0000 50.0000
v  50.0000 100.0000 50.0000
v  50.0000 100.0000 -50.0000
v  -50.0000 100.0000 -50.0000
v  -50.0000 100.0000 50.0000
v  -50.0000 0.0000 50.0000
# 8 vertices

vn 0.0000 -1.0000 -0.0000
vn 0.0000 1.0000 -0.0000
vn 0.0000 0.0000 1.0000
vn 1.0000 0.0000 -0.0000
vn 0.0000 0.0000 -1.0000
vn -1.0000 0.0000 -0.0000
# 6 vertex normals

vt 1.0000 1.0000 0.0000
vt 0.0000 1.0000 0.0000
vt 0.0000 0.0000 0.0000
vt 1.0000 0.0000 0.0000
# 4 texture coords

g Box001
usemtl 01___Default
s 2
f 1/1/1 2/2/1 3/3/1 
s 4
f 4/4/2 5/1/2 6/2/2 
s 8
f 3/4/3 4/1/3 7/2/3 
s 16
f 2/4/4 5/1/4 4/2/4 
s 32
f 1/4/5 6/1/5 5/2/5 
s 64
f 8/4/6 7/1/6 6/2/6 
s 2
f 3/3/1 8/4/1 1/1/1 
s 4
f 6/2/2 7/3/2 4/4/2 
s 8
f 7/2/3 8/3/3 3/4/3 
s 16
f 4/2/4 3/3/4 2/4/4 
s 32
f 5/2/5 2/3/5 1/4/5 
s 64
f 6/2/6 1/3/6 8/4/6 
# 0 polygons - 12 triangles

